<svg id="Layer_3" data-name="Layer 3" xmlns="http://www.w3.org/2000/svg" viewBox="0 0 1080 1080"><defs><style>.cls-1{fill:#fff;}</style></defs><path class="cls-1" d="M175.37,336.4v23.29H143.75V736.23H114.68V359.69H83.06V336.4Z"/><path class="cls-1" d="M264.19,715.15H219.65l-7.14,21.08H182.08L225.34,336.4H259l43.1,399.83H271.33Zm-7.48-50.92L242,368.53l-14.7,295.7Z"/><path class="cls-1" d="M733,715.15H688.42l-7.15,21.08H650.85L694.11,336.4h33.66l43.1,399.83H740.1Zm-7.48-50.92-14.71-295.7-14.7,295.7Z"/><path class="cls-1" d="M422,736.23H393l-48.62-354.1v354.1H315.27V336.4h29.07L393,664.23V336.4H422Z"/><path class="cls-1" d="M529,336.4v23.29H497.34V736.23H468.27V359.69H436.65V336.4Z"/><path class="cls-1" d="M603.69,736.23l-24.82-45.05h-7v45.05H542.83l.75-399.83c16.42,1.11,58.79-3.41,72.85,4.93C645.58,354.59,640.79,681.64,609,689l27.54,47.26Zm-36.48-223.9c0,88.09,10.48,155.86,22.46,148.33,11.18-7,20.54-35,19.88-150.24.75-108.91-8.58-140.84-19.47-149.06-12.22-9.23-22.87,60.89-22.87,151Z"/><path class="cls-1" d="M786.34,336.4h29.75l-19,45.56H777.5Z"/><path class="cls-1" d="M841.62,690.38c14-28,33.62-72.73,40.56-91.51,64.43-167.07-15.53-318.14-17.44-173.61H834.37c4.44-115.79,72.42-105,87.23-54.13,2.93,10.08,32,165-43,326.3H928.3l-1.54,38H834.37l1.55-31.55Q842.18,689.31,841.62,690.38Z"/><path class="cls-1" d="M967.76,346.38c16.18-14.56,53.86-13.87,66,6.63,9.92,15.35,8.27,161.85-9.45,167.2v.68c20.46,5.51,21.68,182,11.48,198.92-12.62,21.89-51.63,21.65-68.68,7.23Q955,717,954.32,696.78h28.22C981.34,711,999.34,718,1009,709.1c5.43-5.2,9.31-168.48,3.06-172.31-3.81-3.31-14.74-4-22-3.66V509.5c6.34.2,15-.11,19.47-3,6.53-3,2.4-137.68-2.63-142.3-8.38-7.82-22.92-1.7-22.61,10.2H955.86Q956.55,356.24,967.76,346.38Z"/></svg>